<?xml version="1.0" encoding="UTF-8" standalone="no"?>
<svg
   xmlns:dc="http://purl.org/dc/elements/1.1/"
   xmlns:cc="http://creativecommons.org/ns#"
   xmlns:rdf="http://www.w3.org/1999/02/22-rdf-syntax-ns#"
   xmlns:svg="http://www.w3.org/2000/svg"
   xmlns="http://www.w3.org/2000/svg"
   xmlns:sodipodi="http://sodipodi.sourceforge.net/DTD/sodipodi-0.dtd"
   xmlns:inkscape="http://www.inkscape.org/namespaces/inkscape"
   width="69.068069mm"
   height="60.0798mm"
   viewBox="0 0 69.068072 60.0798"
   version="1.1"
   id="svg8"
   inkscape:export-filename="C:\Users\Dell\Desktop\standingone.png"
   inkscape:export-xdpi="74"
   inkscape:export-ydpi="74"
   inkscape:version="1.0.1 (3bc2e813f5, 2020-09-07)"
   sodipodi:docname="libraryIcon.svg">
  <defs
     id="defs2">
    <inkscape:perspective
       sodipodi:type="inkscape:persp3d"
       inkscape:vp_x="0 : -115.49207 : 1"
       inkscape:vp_y="0 : 1000 : 0"
       inkscape:vp_z="159.34255 : -115.49207 : 1"
       inkscape:persp3d-origin="79.671277 : -174.01605 : 1"
       id="perspective991" />
    <clipPath
       clipPathUnits="userSpaceOnUse"
       id="clipPath40">
      <path
         style="fill:none;stroke:#000000;stroke-width:0.264583px;stroke-linecap:butt;stroke-linejoin:miter;stroke-opacity:1"
         d="m -320.72345,273.68399 151.80911,-147.53277 53.45391,-153.94725 162.499867,-248.02612 -74.835467,-141.11832 -8.552627,-83.38809 6.414471,-40.62495 136.841996,-59.86838 40.62497,19.24341 147.53278,-34.21052 51.31575,-23.51971 76.97361,83.38809 102.63151,-6.41448 53.4539,21.38159 32.07234,38.48679 34.2105,74.83547 -6.41446,98.3552 v 128.28937 l -12.82893,91.94071 -27.79604,68.421001 -53.4539,49.1775938 -29.93419,40.6249692 -42.76313,36.348654 -64.14468,-2.138159 -19.24341,113.322281 -32.07234,115.46045 -21.38156,66.28283 36.34864,66.28283 -12.82893,70.55917 -25.65786,17.10526 -42.76313,-2.13818 -36.34866,-21.38156 -6.41447,-29.93417 v -32.07234 l 4.27631,-14.96711 2.13816,-29.93419 -17.10525,-4.2763 4.27631,-66.28283 -4.27631,-96.21705 -10.69078,-66.28284 -66.28284,57.73022 -27.79604,42.76313 -27.79603,42.76313 -36.348651,21.38156 -32.072342,76.97361 -25.657876,100.49336 -6.4144685,53.4539 57.7302175,57.7302 89.80256,72.69732 40.62497,55.59205 47.03943,49.1776 51.31576,53.45388 34.2105,42.76315 27.79604,76.97364 4.2763,32.07231 -4.2763,14.9671 -128.28939,12.8289 -51.31575,8.5527 -23.51972,8.5526 -83.388087,-6.4145 -25.657874,-6.4144 4.276312,-38.48685 L 68.420999,970.72291 32.072345,942.9269 -2.1381562,962.17031 -38.486813,1066.94 l -34.210498,70.5591 -23.51972,21.3815 -29.934189,-10.6907 -23.51971,-14.9671 -12.82894,-19.2434 v -27.7961 -29.9341 l -4.27631,-47.0395 -14.9671,-49.17757 -14.96709,-44.90127 -21.38156,-44.9013 -27.79603,-25.65786 -25.65788,2.13817 -42.76313,-57.73023 -149.67092,-269.40769 -6.41448,-32.07234 17.10526,-74.83547 113.32228,-126.15121 z"
         id="path42" />
    </clipPath>
    <clipPath
       clipPathUnits="userSpaceOnUse"
       id="clipPath60">
      <path
         style="fill:none;stroke:#000000;stroke-width:0.264583px;stroke-linecap:butt;stroke-linejoin:miter;stroke-opacity:1"
         d="m 728.04218,468.79076 c 0,0 -3.20722,-1.06908 -3.74176,-31.5378 -0.53454,-30.46873 -0.53454,-30.46873 -0.53454,-30.46873 0,0 -3.20722,-15.50165 -4.81086,-39.02136 -1.60362,-23.51971 -1.06908,-23.51971 -1.06908,-23.51971 l 2.13818,-20.84703 -17.6398,-3.20722 -7.48355,-10.15625 -8.0181,-2.67271 -1.06907,-11.22532 16.03618,-11.22532 -4.27633,-14.96708 -10.15624,-31.00328 1.60364,-18.70886 11.22532,18.70886 11.22532,-21.9161 c 0,0 13.898,-1.60362 14.43254,7.48355 0.53454,9.08716 0.53454,9.08716 0.53454,9.08716 l 1.06908,16.03617 13.89803,-14.43255 3.20723,18.17433 9.6217,24.05425 c 0,0 22.98515,10.15624 13.89801,24.58881 -9.08717,14.43255 -9.08717,14.43255 -9.08717,14.43255 l 5.87994,74.30092 6.94899,76.43911 44.36676,-5.34541 36.88316,41.69405 -17.10521,62.54107 -12.82898,5.87992 c 0,0 35.81413,12.29442 0.53456,20.31248 -35.27957,8.01809 -35.27957,8.01809 -35.27957,8.01809 l -20.84702,103.16605 -23.51971,33.14141 -29.39968,63.61015 32.60688,56.66113 17.10528,53.98844 26.19238,20.31251 -6.41443,32.07234 c 0,0 12.82893,32.60688 -13.89803,39.02132 -26.72694,6.4145 -26.72694,6.4145 -26.72694,6.4145 l -14.96711,-25.12333 11.22532,-14.96711 c 0,0 -12.82893,-54.52298 -44.90127,-95.68249 -32.07235,-41.15951 -31.53781,-41.15951 -31.53781,-41.15951 l -9.08717,30.46873 -8.01806,51.85029 11.75985,28.33058 c 0,0 -10.69078,8.55263 -21.91609,18.17431 -11.22535,9.62168 -11.22535,10.15624 -11.22535,10.15624 l -8.5526,17.10526 c 0,0 -28.33058,22.98513 -35.2796,-2.13815 -6.94899,-25.12335 -6.94899,-25.12335 -6.94899,-25.12335 l 19.77795,-9.08714 c 0,0 14.43255,8.01806 10.15624,-68.42104 -4.27632,-76.43905 -4.27632,-76.43905 -4.27632,-76.43905 l -4.27631,-49.71214 73.76639,-100.49333 -36.34867,-92.47526 19.24341,-53.98844 19.77795,-31.53781 z"
         id="path62" />
    </clipPath>
    <clipPath
       clipPathUnits="userSpaceOnUse"
       id="clipPath80">
      <path
         style="fill:none;stroke:#000000;stroke-width:0.264583px;stroke-linecap:butt;stroke-linejoin:miter;stroke-opacity:1"
         d="m 553.78248,384.78608 17.10524,-14.96711 6.41447,-10.69078 33.14142,-36.34864 56.66116,-43.8322 52.38483,-99.42428 28.86508,-102.631491 19.24342,-42.763123 13.898,-115.460436 19.24341,-71.62823 28.86512,-57.73022 39.55587,-3.20723 34.21052,-5.34539 17.10526,-22.45065 4.2763,-29.93418 -35.27957,-41.69405 v -39.55588 l 6.41445,-45.97037 44.9013,-56.66113 59.86834,-26.72697 36.3487,4.27633 52.3848,19.24339 29.9342,53.45392 11.7598,118.66767 22.4507,28.8651 -8.5526,48.10852 9.6217,21.38156 -14.9671,4.27631 35.2795,19.24341 55.5921,14.96709 35.2796,63.07561 9.6217,72.697311 5.3454,32.072342 13.898,45.970356 -8.5526,55.592061 -19.2434,11.75986 -5.3454,53.45392 -11.7599,86.59532 -21.3816,289.72018 -5.3453,239.47347 1.069,382.72995 -35.2795,11.7599 -16.0362,-11.7599 -6.4145,-252.30243 -151.8091,-26.72694 -8.5526,3.20723 -26.72697,289.72014 -11.75983,63.0756 -26.72694,3.2073 -24.58881,-9.6217 8.55263,-117.5986 -9.62171,-172.12159 -199.9176,-37.41777 -31.00327,276.89126 -17.10523,4.2763 -14.96711,6.4145 1.06907,44.9013 -22.45063,-3.2073 -5.34538,-83.3881 -12.82896,105.8388 -48.1085,20.3124 -63.07561,-14.9671 -14.9671,-79.1117 47.03945,-39.5559 17.10523,-88.7335 -10.69078,-84.45715 -1.06908,-25.65791 -24.58878,-195.64125 V 667.02271 l -6.41448,-54.52301 37.41774,-116.52951 -24.58878,-63.07561 10.69078,-21.38156 z"
         id="path82" />
    </clipPath>
  </defs>
  <sodipodi:namedview
     id="base"
     pagecolor="#ffffff"
     bordercolor="#666666"
     borderopacity="1.0"
     inkscape:pageopacity="0.0"
     inkscape:pageshadow="2"
     inkscape:zoom="0.12374369"
     inkscape:cx="1003.0181"
     inkscape:cy="-170.63782"
     inkscape:document-units="mm"
     inkscape:current-layer="layer1"
     inkscape:document-rotation="0"
     showgrid="false"
     inkscape:window-width="1267"
     inkscape:window-height="730"
     inkscape:window-x="25"
     inkscape:window-y="0"
     inkscape:window-maximized="0" />
  <metadata
     id="metadata5">
    <rdf:RDF>
      <cc:Work
         rdf:about="">
        <dc:format>image/svg+xml</dc:format>
        <dc:type
           rdf:resource="http://purl.org/dc/dcmitype/StillImage" />
        <dc:title></dc:title>
      </cc:Work>
    </rdf:RDF>
  </metadata>
  <g
     inkscape:label="Layer 1"
     inkscape:groupmode="layer"
     id="layer1"
     transform="translate(158.74999,-362.09497)">
    <rect
       style="opacity:1;fill:#ffffff;fill-rule:evenodd;stroke:#000000;stroke-width:0;stroke-linecap:round;stroke-miterlimit:4;stroke-dasharray:none;stroke-dashoffset:248.504;paint-order:stroke markers fill"
       id="rect1001"
       width="18.172419"
       height="51.372025"
       x="-158.74998"
       y="369.27652" />
    <rect
       style="opacity:1;fill:#ffffff;fill-rule:evenodd;stroke:#000000;stroke-width:0;stroke-linecap:round;stroke-miterlimit:4;stroke-dasharray:none;stroke-dashoffset:248.504;paint-order:stroke markers fill"
       id="rect1003"
       width="14.014681"
       height="58.553574"
       x="-137.5833"
       y="362.09497" />
    <rect
       style="opacity:1;fill:#ffffff;fill-rule:evenodd;stroke:#000000;stroke-width:0;stroke-linecap:round;stroke-miterlimit:4;stroke-dasharray:none;stroke-dashoffset:248.504;paint-order:stroke markers fill"
       id="rect1005"
       width="18.172419"
       height="51.372025"
       x="-223.50009"
       y="322.45712"
       transform="rotate(-16.639795)" />
  </g>
</svg>
